<?xml version="1.0" encoding="UTF-8"?>
<svg width="24px" height="24px" viewBox="0 0 24 24" version="1.1" xmlns="http://www.w3.org/2000/svg" xmlns:xlink="http://www.w3.org/1999/xlink">
    <!-- Generator: Sketch 51.2 (57519) - http://www.bohemiancoding.com/sketch -->
    <title>logout</title>
    <desc>Created with Sketch.</desc>
    <defs></defs>
    <g id="logout" stroke="none" stroke-width="1" fill="none" fill-rule="evenodd">
        <path d="M21.7928932,12.5 L9,12.5 C8.72385763,12.5 8.5,12.2761424 8.5,12 C8.5,11.7238576 8.72385763,11.5 9,11.5 L21.7928932,11.5 L17.6464466,7.35355339 C17.4511845,7.15829124 17.4511845,6.84170876 17.6464466,6.64644661 C17.8417088,6.45118446 18.1582912,6.45118446 18.3535534,6.64644661 L23.3535534,11.6464466 C23.5488155,11.8417088 23.5488155,12.1582912 23.3535534,12.3535534 L18.3535534,17.3535534 C18.1582912,17.5488155 17.8417088,17.5488155 17.6464466,17.3535534 C17.4511845,17.1582912 17.4511845,16.8417088 17.6464466,16.6464466 L21.7928932,12.5 Z M9,20.5 C9.27614237,20.5 9.5,20.7238576 9.5,21 C9.5,21.2761424 9.27614237,21.5 9,21.5 L4,21.5 C2.06700338,21.5 0.5,19.9329966 0.5,18 L0.5,6 C0.5,4.06700338 2.06700338,2.5 4,2.5 L9,2.5 C9.27614237,2.5 9.5,2.72385763 9.5,3 C9.5,3.27614237 9.27614237,3.5 9,3.5 L4,3.5 C2.61928813,3.5 1.5,4.61928813 1.5,6 L1.5,18 C1.5,19.3807119 2.61928813,20.5 4,20.5 L9,20.5 Z" id="Combined-Shape" fill="#000000" fill-rule="nonzero"></path>
    </g>
</svg>