<svg xmlns="http://www.w3.org/2000/svg" viewBox="0 0 64 64"><g id="_09-upload" data-name="09-upload"><path d="M53.007,16.758A7.888,7.888,0,0,1,55,22h0V52a5,5,0,0,1-5,5H14a5,5,0,0,1-5-5V6a5,5,0,0,1,5-5H36a6.682,6.682,0,0,1,4.993,2.242L41.667,4,53,16.75Z" style="fill:#68a0dd"/><path d="M54.4,19H39a3,3,0,0,1-3-3V1a6.679,6.679,0,0,1,4.99,2.24l.68.76L53,16.75l.01.01A7.778,7.778,0,0,1,54.4,19Z" style="fill:#4e78a6"/><circle cx="32" cy="47" r="16" style="fill:#dbdada"/><polygon points="27 47 27 57 37 57 37 47 41 47 32 36 23 47 27 47" style="fill:#efbb60"/><path d="M49,20H39a4,4,0,0,1-4-4V6a1,1,0,0,1,2,0V16a2,2,0,0,0,2,2H49a1,1,0,0,1,0,2Z"/><path d="M37,58H27a1,1,0,0,1-1-1V48H23a1,1,0,0,1-.774-1.633l9-11a1.035,1.035,0,0,1,1.548,0l9,11A1,1,0,0,1,41,48H38v9A1,1,0,0,1,37,58Zm-9-2h8V47a1,1,0,0,1,1-1h1.89L32,37.579,25.11,46H27a1,1,0,0,1,1,1Z"/><path d="M50,58a1,1,0,0,1,0-2,4,4,0,0,0,4-4V22a6.887,6.887,0,0,0-1.74-4.578L40.246,3.907A5.685,5.685,0,0,0,36,2H14a4,4,0,0,0-4,4V52a4,4,0,0,0,4,4,1,1,0,0,1,0,2,6.006,6.006,0,0,1-6-6V6a6.006,6.006,0,0,1,6-6H36a7.683,7.683,0,0,1,5.74,2.578L53.747,16.085A8.89,8.89,0,0,1,56,22V52A6.006,6.006,0,0,1,50,58Z"/><path d="M32,64A17,17,0,1,1,48.153,41.688a1,1,0,1,1-1.9.624A15.012,15.012,0,1,0,47,47a1,1,0,0,1,2,0A17.019,17.019,0,0,1,32,64Z"/></g></svg>