<svg xmlns="http://www.w3.org/2000/svg" viewBox="0 0 64 64"><g id="Layer_32" data-name="Layer 32"><path d="M57,42S45.807,57,32,57,7,42,7,42,18.193,27,32,27,57,42,57,42Z" style="fill:#c7ced1"/><circle cx="32" cy="42" r="15" style="fill:#818182"/><circle cx="32" cy="42" r="9" style="fill:#c7ced1"/><circle cx="32" cy="42" r="3" style="fill:#818182"/><rect x="23" y="19" width="18" height="16" rx="2" style="fill:#ffcb4f"/><path d="M25,14v5h4V14a3,3,0,0,1,3-3h0a3,3,0,0,1,3,3v5h4V14a7,7,0,0,0-7-7h0A7,7,0,0,0,25,14Z" style="fill:#f2b640"/><circle cx="32" cy="25" r="2" style="fill:#f2b640"/><path d="M3,14a1,1,0,0,0,1-1V8H9A1,1,0,0,0,9,6H3A1,1,0,0,0,2,7v6A1,1,0,0,0,3,14Z" style="fill:#37d1bb"/><path d="M9,56H4V51a1,1,0,0,0-2,0v6a1,1,0,0,0,1,1H9a1,1,0,0,0,0-2Z" style="fill:#37d1bb"/><path d="M61,50a1,1,0,0,0-1,1v5H55a1,1,0,0,0,0,2h6a1,1,0,0,0,1-1V51A1,1,0,0,0,61,50Z" style="fill:#37d1bb"/><path d="M61,6H55a1,1,0,0,0,0,2h5v5a1,1,0,0,0,2,0V7A1,1,0,0,0,61,6Z" style="fill:#37d1bb"/><path d="M32,32.014a1,1,0,0,1-1-1v-4a1,1,0,1,1,2,0v4A1,1,0,0,1,32,32.014Z" style="fill:#f2b640"/><rect x="2" y="41" width="60" height="2" rx="1" style="fill:#37d1bb"/></g></svg>