<?xml version="1.0" encoding="UTF-8"?>
<svg width="24px" height="24px" viewBox="0 0 24 24" version="1.1" xmlns="http://www.w3.org/2000/svg" xmlns:xlink="http://www.w3.org/1999/xlink">
    <!-- Generator: Sketch 51.2 (57519) - http://www.bohemiancoding.com/sketch -->
    <title>rotate</title>
    <desc>Created with Sketch.</desc>
    <defs></defs>
    <g id="rotate" stroke="none" stroke-width="1" fill="none" fill-rule="evenodd">
        <path d="M3.5,6.5 L8,6.5 C8.27614237,6.5 8.5,6.72385763 8.5,7 C8.5,7.27614237 8.27614237,7.5 8,7.5 L3,7.5 C2.72385763,7.5 2.5,7.27614237 2.5,7 L2.5,2 C2.5,1.72385763 2.72385763,1.5 3,1.5 C3.27614237,1.5 3.5,1.72385763 3.5,2 L3.5,6.5 Z M20.5,17.5 L16,17.5 C15.7238576,17.5 15.5,17.2761424 15.5,17 C15.5,16.7238576 15.7238576,16.5 16,16.5 L21,16.5 C21.2761424,16.5 21.5,16.7238576 21.5,17 L21.5,22 C21.5,22.2761424 21.2761424,22.5 21,22.5 C20.7238576,22.5 20.5,22.2761424 20.5,22 L20.5,17.5 Z M22.5,12 C22.5,12.2761424 22.2761424,12.5 22,12.5 C21.7238576,12.5 21.5,12.2761424 21.5,12 C21.5,6.75329488 17.2467051,2.5 12,2.5 C9.91598282,2.5 7.9351105,3.17221393 6.30365006,4.39652728 C6.08278283,4.56227491 5.76936956,4.51759164 5.60362193,4.29672441 C5.4378743,4.07585718 5.48255757,3.7624439 5.7034248,3.59669628 C7.50656751,2.24354566 9.69763935,1.5 12,1.5 C17.7989899,1.5 22.5,6.20101013 22.5,12 Z M17.6963499,19.6034727 C17.9172172,19.4377251 18.2306304,19.4824084 18.3963781,19.7032756 C18.5621257,19.9241428 18.5174424,20.2375561 18.2965752,20.4033037 C16.4934325,21.7564543 14.3023606,22.5 12,22.5 C6.20101013,22.5 1.5,17.7989899 1.5,12 C1.5,11.7238576 1.72385763,11.5 2,11.5 C2.27614237,11.5 2.5,11.7238576 2.5,12 C2.5,17.2467051 6.75329488,21.5 12,21.5 C14.0840172,21.5 16.0648895,20.8277861 17.6963499,19.6034727 Z" id="Combined-Shape" fill="#000000" fill-rule="nonzero"></path>
    </g>
</svg>